<svg width="207" height="41" viewBox="0 0 207 41" fill="none" xmlns="http://www.w3.org/2000/svg">
<path d="M54.1039 19.55V30.55H49.8747V17.94C49.8765 17.6345 49.9482 17.3334 50.0842 17.06C50.3634 16.4847 50.827 16.02 51.4008 15.74C51.6638 15.6061 51.9537 15.5343 52.2486 15.53H64.4375C64.7321 15.5364 65.0217 15.6081 65.2854 15.74C65.8592 16.02 66.3228 16.4847 66.602 17.06C66.738 17.3334 66.8096 17.6345 66.8115 17.94V30.5H62.5424V19.5L54.1039 19.55Z" fill="#D80034"/>
<path d="M85.7831 15.74C86.3569 16.02 86.8205 16.4847 87.0997 17.06C87.2357 17.3334 87.3074 17.6345 87.3092 17.94V28.09C87.3074 28.3955 87.2357 28.6966 87.0997 28.97C86.8223 29.549 86.3585 30.0175 85.7831 30.3C85.5201 30.4339 85.2302 30.5057 84.9353 30.51H71.1803C70.8854 30.5057 70.5955 30.4339 70.3325 30.3C69.7587 30.02 69.2951 29.5553 69.0159 28.98C68.8799 28.7066 68.8082 28.4055 68.8064 28.1V17.94C68.8082 17.6345 68.8799 17.3334 69.0159 17.06C69.2951 16.4847 69.7587 16.02 70.3325 15.74C70.5955 15.6061 70.8854 15.5343 71.1803 15.53H84.9253C85.2233 15.5349 85.5164 15.6066 85.7831 15.74ZM73.0955 19.55V26.49H83.07V19.55H73.0955Z" fill="#D80034"/>
<path d="M93.4735 19.55V30.55H89.1944V17.94C89.1962 17.6345 89.2679 17.3334 89.4039 17.06C89.6831 16.4847 90.1467 16.02 90.7205 15.74C90.9835 15.6061 91.2734 15.5343 91.5683 15.53H103.797C104.092 15.5364 104.381 15.6081 104.645 15.74C105.219 16.02 105.682 16.4847 105.962 17.06C106.098 17.3334 106.169 17.6345 106.171 17.94V30.5H101.892V19.5L93.4735 19.55Z" fill="#D80034"/>
<path d="M121.891 21.19V15.53H126.17V28.09C126.168 28.3955 126.097 28.6966 125.961 28.97C125.693 29.5426 125.244 30.0103 124.684 30.3C124.421 30.4339 124.131 30.5057 123.836 30.51H108.176V26.51H121.891V24.87H110.55C110.255 24.8657 109.965 24.7939 109.702 24.66C109.128 24.38 108.665 23.9153 108.385 23.34C108.249 23.0666 108.178 22.7655 108.176 22.46V15.55H112.455V21.21L121.891 21.19Z" fill="#D80034"/>
<path d="M128.065 15.53H146.019V19.53H139.187V30.53H134.908V19.53H128.075L128.065 15.53Z" fill="#D80034"/>
<path d="M161.59 21.19V15.53H165.869V30.53H161.59V24.87H150.279C149.984 24.8657 149.694 24.7939 149.431 24.66C148.857 24.38 148.393 23.9153 148.114 23.34C147.978 23.0666 147.907 22.7655 147.905 22.46V15.55H152.184V21.21L161.59 21.19Z" fill="#D80034"/>
<path d="M183.055 15.53H183.853C184.192 15.5212 184.531 15.5754 184.85 15.69C185.128 15.7895 185.388 15.9348 185.618 16.12C185.828 16.2893 186.003 16.4961 186.137 16.73C186.257 16.9331 186.323 17.164 186.327 17.4V30.5H182.048V21.12L177.729 25.27C176.512 26.43 175.471 27.3867 174.607 28.14C173.936 28.7441 173.233 29.3116 172.502 29.84C172.123 30.1385 171.684 30.3502 171.215 30.46C171.167 30.476 171.114 30.476 171.066 30.46H170.238C169.621 30.4567 169.024 30.2453 168.542 29.86C168.335 29.6926 168.159 29.4894 168.023 29.26C167.9 29.0548 167.834 28.8197 167.834 28.58V15.48H172.113V24.83L176.522 20.65C177.738 19.49 178.763 18.5367 179.594 17.79C180.227 17.1965 180.893 16.639 181.589 16.12C181.965 15.82 182.405 15.6113 182.875 15.51C182.936 15.4986 182.998 15.5056 183.055 15.53Z" fill="#D80034"/>
<path d="M192.511 21.19H196.501L201.428 15.53H206.745L200.271 23.03L206.745 30.5H201.428L196.501 24.85H192.511V30.51H188.232V15.51H192.511V21.19Z" fill="#D80034"/>
<path d="M9.6373 34.1C9.67986 33.9542 9.68871 33.8005 9.66317 33.6507C9.63763 33.5009 9.57843 33.359 9.48997 33.2356C9.40151 33.1122 9.28616 33.0106 9.15269 32.9386C9.01922 32.8666 8.8711 32.8261 8.71965 32.82H8.41045C8.19463 32.82 7.98465 32.7498 7.812 32.62C8.39445 33.4286 9.03447 34.194 9.72709 34.91C9.65625 34.7889 9.61161 34.6541 9.59614 34.5146C9.58067 34.375 9.5947 34.2338 9.6373 34.1Z" fill="#D80034"/>
<path d="M15.622 39.18C16.1939 39.4533 16.7824 39.7 17.3875 39.92C16.7691 39.6933 16.164 39.4367 15.5722 39.15L15.622 39.18Z" fill="#D80034"/>
<path d="M5.79711 12.05C5.77166 12.1046 5.75162 12.1615 5.73727 12.22C5.93676 11.77 6.14625 11.33 6.38564 10.89C6.17617 11.28 5.98663 11.66 5.79711 12.05Z" fill="#D80034"/>
<path d="M24.3598 14.2C23.0873 14.2 21.8435 14.5783 20.7855 15.287C19.7275 15.9958 18.9029 17.0031 18.416 18.1817C17.929 19.3603 17.8016 20.6571 18.0498 21.9083C18.2981 23.1595 18.9108 24.3088 19.8105 25.2108C20.7103 26.1129 21.8567 26.7272 23.1047 26.9761C24.3527 27.2249 25.6462 27.0972 26.8218 26.609C27.9974 26.1208 29.0022 25.2941 29.7091 24.2334C30.416 23.1727 30.7934 21.9257 30.7934 20.65C30.7934 19.803 30.627 18.9642 30.3037 18.1817C29.9803 17.3991 29.5064 16.6881 28.909 16.0892C28.3116 15.4902 27.6024 15.0151 26.8218 14.691C26.0413 14.3668 25.2047 14.2 24.3598 14.2ZM24.0905 25.56C23.1235 25.5072 22.1938 25.1681 21.4189 24.5857C20.6441 24.0033 20.0588 23.2036 19.7372 22.2878C19.4156 21.3719 19.3721 20.3811 19.6121 19.4404C19.8521 18.4998 20.3649 17.6516 21.0857 17.0031C21.8064 16.3546 22.7027 15.9349 23.6614 15.797C24.62 15.6592 25.5979 15.8093 26.4715 16.2285C27.345 16.6477 28.0749 17.3172 28.569 18.1522C29.0631 18.9873 29.2992 19.9505 29.2473 20.92C29.1752 22.2193 28.5916 23.4368 27.6246 24.3049C26.6577 25.1731 25.3866 25.6209 24.0905 25.55V25.56Z" fill="#D80034"/>
<path d="M27.6414 29.9C27.5037 29.8944 27.3721 29.8414 27.2689 29.7498C27.1657 29.6583 27.0972 29.5338 27.0749 29.3975C27.0526 29.2611 27.078 29.1212 27.1467 29.0015C27.2154 28.8817 27.3232 28.7893 27.4519 28.74C27.7428 28.645 28.0235 28.521 28.2897 28.37C28.9264 28.0026 29.5305 27.5811 30.0951 27.11C30.1551 27.0574 30.225 27.0173 30.3006 26.9921C30.3762 26.9669 30.4561 26.9571 30.5356 26.9633C30.6151 26.9695 30.6925 26.9915 30.7634 27.0281C30.8342 27.0647 30.8971 27.1151 30.9482 27.1764C30.9994 27.2377 31.0378 27.3086 31.0613 27.385C31.0848 27.4613 31.0927 27.5416 31.0848 27.6211C31.0769 27.7007 31.0532 27.7778 31.0152 27.848C30.9771 27.9182 30.9254 27.9801 30.8632 28.03C30.239 28.5436 29.5715 29.002 28.8683 29.4C28.5356 29.5911 28.1848 29.7485 27.821 29.87C27.763 29.8893 27.7025 29.8994 27.6414 29.9Z" fill="#D80034"/>
<path d="M32.6386 25.65C32.5344 25.6483 32.4324 25.6194 32.3427 25.5661C32.2531 25.5127 32.1789 25.4368 32.1275 25.3459C32.0761 25.255 32.0493 25.1521 32.0497 25.0476C32.0502 24.9431 32.0778 24.8405 32.13 24.75C32.6537 23.8609 32.9771 22.8677 33.0775 21.84C33.0791 21.7571 33.0978 21.6755 33.1325 21.6002C33.1671 21.5249 33.2169 21.4576 33.2788 21.4026C33.3406 21.3476 33.4132 21.3061 33.4919 21.2806C33.5706 21.2551 33.6537 21.2462 33.7359 21.2546C33.8182 21.2629 33.8979 21.2882 33.9699 21.3289C34.0419 21.3696 34.1047 21.4249 34.1544 21.4912C34.2041 21.5574 34.2395 21.6333 34.2585 21.714C34.2774 21.7947 34.2794 21.8785 34.2645 21.96C34.1506 23.16 33.7761 24.3205 33.1673 25.36C33.1126 25.4509 33.0349 25.5256 32.942 25.5766C32.8492 25.6275 32.7445 25.6529 32.6386 25.65Z" fill="#D80034"/>
<path d="M15.9612 24.42C15.8447 24.42 15.7308 24.386 15.6333 24.322C15.5359 24.2581 15.4592 24.167 15.4126 24.06C14.9372 22.971 14.657 21.8065 14.5847 20.62C14.5947 20.4735 14.658 20.3359 14.7625 20.233C14.8669 20.1302 15.0054 20.0693 15.1516 20.0619C15.2978 20.0545 15.4417 20.1011 15.556 20.1929C15.6702 20.2847 15.747 20.4153 15.7717 20.56C15.8382 21.5949 16.0846 22.6102 16.4998 23.56C16.5395 23.6513 16.556 23.7511 16.5476 23.8504C16.5393 23.9497 16.5064 24.0453 16.452 24.1287C16.3976 24.212 16.3232 24.2805 16.2358 24.3278C16.1484 24.3752 16.0506 24.4 15.9512 24.4L15.9612 24.42Z" fill="#D80034"/>
<path d="M33.3568 19.19C33.2256 19.1904 33.0979 19.1475 32.9934 19.068C32.8888 18.9885 32.8133 18.8768 32.7783 18.75C32.5013 17.736 32.0562 16.776 31.4616 15.91C31.4171 15.8443 31.3859 15.7705 31.3698 15.6928C31.3538 15.615 31.3531 15.5349 31.3679 15.4569C31.3828 15.3789 31.4128 15.3045 31.4562 15.2382C31.4997 15.1718 31.5558 15.1147 31.6213 15.07C31.6868 15.0254 31.7604 14.9941 31.8379 14.9779C31.9155 14.9618 31.9954 14.9612 32.0732 14.976C32.151 14.9909 32.2252 15.021 32.2914 15.0645C32.3576 15.1081 32.4146 15.1643 32.4591 15.23C33.1264 16.2063 33.6255 17.288 33.9354 18.43C33.9752 18.5824 33.9535 18.7445 33.8751 18.8811C33.7967 19.0177 33.6679 19.1179 33.5164 19.16L33.3568 19.19Z" fill="#D80034"/>
<path d="M15.7717 17.92C15.6752 17.9197 15.5803 17.896 15.4949 17.8509C15.4096 17.8059 15.3363 17.7408 15.2815 17.6612C15.2266 17.5817 15.1917 17.49 15.1798 17.394C15.1679 17.298 15.1793 17.2006 15.2131 17.11C15.6496 16.0123 16.2703 14.9976 17.0484 14.11C17.1559 14.0021 17.3003 13.9392 17.4523 13.9342C17.6043 13.9292 17.7525 13.9823 17.8668 14.0829C17.9811 14.1835 18.0529 14.324 18.0676 14.4757C18.0824 14.6275 18.0389 14.7792 17.9461 14.9C17.2563 15.6868 16.7063 16.5866 16.3203 17.56C16.2737 17.667 16.197 17.7581 16.0995 17.822C16.0021 17.886 15.8881 17.92 15.7717 17.92Z" fill="#D80034"/>
<path d="M29.6064 13.82C29.4847 13.8194 29.3663 13.7809 29.2673 13.71C28.4077 13.1083 27.4535 12.6553 26.4444 12.37C26.3619 12.3559 26.2831 12.3246 26.2134 12.278C26.1437 12.2315 26.0845 12.1708 26.0396 12.0999C25.9947 12.029 25.9652 11.9494 25.953 11.8664C25.9407 11.7833 25.946 11.6986 25.9684 11.6177C25.9909 11.5368 26.03 11.4615 26.0833 11.3967C26.1366 11.3319 26.2029 11.2791 26.2778 11.2416C26.3528 11.2041 26.4347 11.1828 26.5184 11.1791C26.6021 11.1754 26.6857 11.1893 26.7636 11.22C27.9004 11.5383 28.9759 12.0453 29.9455 12.72C30.0489 12.7932 30.1264 12.8974 30.167 13.0175C30.2076 13.1376 30.2092 13.2676 30.1715 13.3887C30.1338 13.5098 30.0588 13.6158 29.9573 13.6915C29.8557 13.7672 29.7329 13.8087 29.6064 13.81V13.82Z" fill="#D80034"/>
<path d="M20.1206 13C19.9879 12.9975 19.8599 12.951 19.7565 12.8676C19.6531 12.7843 19.5803 12.6689 19.5495 12.5395C19.5187 12.4102 19.5316 12.2742 19.5862 12.153C19.6408 12.0319 19.7341 11.9323 19.8513 11.87C20.9099 11.3281 22.06 10.989 23.2426 10.87C23.3239 10.855 23.4075 10.8571 23.488 10.8761C23.5684 10.8951 23.6442 10.9306 23.7103 10.9804C23.7764 11.0302 23.8315 11.0931 23.8721 11.1654C23.9127 11.2376 23.938 11.3174 23.9463 11.3999C23.9546 11.4824 23.9457 11.5657 23.9203 11.6446C23.8949 11.7235 23.8534 11.7962 23.7986 11.8582C23.7437 11.9203 23.6766 11.9702 23.6015 12.0049C23.5264 12.0397 23.445 12.0584 23.3623 12.06C22.3193 12.1596 21.3043 12.4548 20.3699 12.93C20.293 12.9716 20.2078 12.9955 20.1206 13Z" fill="#D80034"/>
<path d="M24.1403 32.72H5.07897C4.97431 32.7079 4.87501 32.6669 4.79223 32.6016C4.70945 32.5363 4.64641 32.4492 4.61014 32.35L2.99426 29.08C2.60526 28.33 2.89449 27.08 3.46304 27.08H24.4794V25.57H2.08661C0.939531 25.57 0.311134 27.88 1.08915 29.4L2.88456 33.21C2.9584 33.428 3.09043 33.6216 3.26627 33.7697C3.44212 33.9178 3.65507 34.0147 3.88201 34.05H24.4296V32.72H24.1403Z" fill="#D80034"/>
<path d="M24.3598 6.39999C21.9293 6.39943 19.5394 7.02368 17.4182 8.21307C15.2971 9.40247 13.5155 11.1173 12.2438 13.1937C10.9721 15.2702 10.2527 17.6388 10.1544 20.0734C10.056 22.5081 10.5821 24.9273 11.6821 27.1H14.1758C12.7952 24.9078 12.1548 22.3284 12.3491 19.7431C12.5435 17.1578 13.5623 14.7038 15.2551 12.7438C16.9478 10.7838 19.2246 9.42175 21.7489 8.85901C24.2733 8.29627 26.9113 8.56268 29.273 9.61887C31.6347 10.6751 33.5948 12.465 34.8636 14.7241C36.1324 16.9832 36.6425 19.5916 36.3187 22.1638C35.9948 24.736 34.8542 27.1355 33.0652 29.0077C31.2763 30.8798 28.934 32.1253 26.3846 32.56L25.7562 32.64H25.4171H25.2675H24.8884C24.4595 32.64 24.1902 32.64 24.1902 32.64H16.8589C18.7245 33.8138 20.8366 34.5368 23.0287 34.7521C25.2207 34.9674 27.4327 34.669 29.49 33.8805C31.5473 33.092 33.3937 31.835 34.8835 30.2086C36.3732 28.5822 37.4656 26.6309 38.0744 24.5088C38.6832 22.3867 38.7918 20.1518 38.3915 17.9804C37.9913 15.809 37.0931 13.7606 35.768 11.9968C34.4429 10.233 32.7271 8.80202 30.7559 7.81685C28.7847 6.83168 26.6122 6.31926 24.4096 6.32001L24.3598 6.39999Z" fill="#D80034"/>
<path d="M44.7478 18.81C44.7268 18.6357 44.6605 18.47 44.5554 18.3296C44.4504 18.1892 44.3103 18.0789 44.1493 18.01H44.0695C43.9244 17.9424 43.7976 17.8409 43.6999 17.7139C43.6022 17.5869 43.5363 17.4382 43.5079 17.2803C43.4796 17.1224 43.4895 16.96 43.5369 16.8068C43.5843 16.6536 43.6678 16.5141 43.7803 16.4L43.8501 16.34C43.9853 16.216 44.0837 16.0571 44.1348 15.8807C44.1858 15.7043 44.1874 15.5172 44.1393 15.34C43.8209 14.1926 43.4037 13.0751 42.8925 12C42.823 11.863 42.723 11.744 42.6002 11.6521C42.4773 11.5602 42.335 11.4979 42.1843 11.47L41.8152 11.4C41.6714 11.369 41.5363 11.3066 41.4193 11.2171C41.3024 11.1276 41.2067 11.0133 41.139 10.8824C41.0713 10.7515 41.0333 10.6071 41.0278 10.4598C41.0223 10.3124 41.0494 10.1656 41.1071 10.03L41.1868 9.86999C41.264 9.71189 41.2982 9.53618 41.2859 9.36059C41.2737 9.185 41.2154 9.01577 41.117 8.86999C40.414 7.86466 39.6229 6.92427 38.753 6.05999C38.6413 5.95405 38.5067 5.87547 38.3596 5.83036C38.2125 5.78526 38.057 5.77487 37.9052 5.8L37.606 5.85C37.4558 5.87068 37.3028 5.85672 37.1587 5.80921C37.0147 5.76171 36.8832 5.6819 36.7746 5.57585C36.6659 5.46979 36.5828 5.34027 36.5315 5.19717C36.4803 5.05406 36.4623 4.90113 36.4789 4.74999C36.5017 4.57089 36.4757 4.38893 36.4037 4.22343C36.3317 4.05793 36.2163 3.91506 36.0699 3.80999C35.124 3.1335 34.123 2.53807 33.0775 2.02999C32.9383 1.95966 32.7846 1.92303 32.6287 1.92303C32.4728 1.92303 32.3191 1.95966 32.1798 2.02999L31.9005 2.19999C31.7651 2.27321 31.6146 2.314 31.4608 2.31919C31.307 2.32438 31.1541 2.29383 31.014 2.22991C30.8739 2.166 30.7505 2.07046 30.6534 1.95077C30.5563 1.83108 30.4882 1.69048 30.4543 1.53999C30.4196 1.35976 30.336 1.19259 30.2129 1.05677C30.0897 0.920954 29.9317 0.82174 29.756 0.769998C28.5746 0.441928 27.3661 0.221035 26.1452 0.109994C25.9863 0.100117 25.8272 0.128554 25.6815 0.192926C25.5357 0.257298 25.4074 0.355727 25.3074 0.479989L25.1977 0.619989C25.1041 0.733229 24.9867 0.824377 24.8539 0.886941C24.7212 0.949505 24.5763 0.981943 24.4296 0.981943C24.2829 0.981943 24.138 0.949505 24.0053 0.886941C23.8725 0.824377 23.7551 0.733229 23.6615 0.619989L23.5718 0.499994C23.4719 0.369179 23.3414 0.26513 23.1917 0.197092C23.0421 0.129053 22.878 0.0991333 22.714 0.109994C22.0756 0.109994 21.4372 0.22999 20.7988 0.33999C20.1605 0.44999 19.5321 0.609993 18.9236 0.779993C18.7668 0.826626 18.6238 0.91122 18.5073 1.02632C18.3907 1.14141 18.3042 1.28348 18.2553 1.44V1.58C18.2083 1.7195 18.1311 1.84686 18.0293 1.953C17.9275 2.05913 17.8035 2.14141 17.6663 2.19395C17.5291 2.24649 17.382 2.26801 17.2355 2.25695C17.0891 2.2459 16.9468 2.20255 16.819 2.13L16.6694 2.03999C16.5325 1.95691 16.3776 1.90808 16.2179 1.89764C16.0582 1.88719 15.8983 1.91544 15.7517 1.97999C14.6443 2.50382 13.5861 3.12633 12.5898 3.83999C12.435 3.95113 12.3152 4.10435 12.2445 4.28155C12.1738 4.45875 12.1552 4.65251 12.1908 4.83999C12.2223 5.0046 12.2121 5.17452 12.1611 5.33413C12.11 5.49374 12.0197 5.63793 11.8986 5.75343C11.7774 5.86893 11.6292 5.95204 11.4677 5.99513C11.3061 6.03821 11.1363 6.03988 10.9739 5.99999L10.6547 5.94C10.5006 5.91454 10.3427 5.92571 10.1937 5.9726C10.0448 6.0195 9.90885 6.10082 9.79693 6.21C8.98034 7.07458 8.23945 8.00802 7.58255 8.99999C7.48573 9.14668 7.42923 9.31636 7.41872 9.49194C7.40821 9.66751 7.44408 9.84276 7.5227 9.99999C7.58983 10.1359 7.62527 10.2854 7.62626 10.4371C7.62725 10.5888 7.59378 10.7387 7.52843 10.8755C7.46308 11.0124 7.36755 11.1325 7.24905 11.2268C7.13055 11.3211 6.99217 11.3872 6.84444 11.42L6.54522 11.47C6.39629 11.4993 6.256 11.5622 6.13501 11.6541C6.01401 11.7459 5.91548 11.8642 5.84699 12C5.6076 12.5 5.39812 13 5.2086 13.53L5.069 13.92L4.96922 14.21C4.8196 14.68 4.67999 15.15 4.57027 15.63C4.56409 15.7683 4.5866 15.9063 4.63639 16.0354C4.68618 16.1645 4.76215 16.2819 4.85951 16.38L4.98919 16.5C5.09005 16.6071 5.16609 16.7352 5.21183 16.8752C5.25756 17.0152 5.27188 17.1636 5.25377 17.3097C5.23567 17.4559 5.18555 17.5963 5.10705 17.7208C5.02855 17.8453 4.9236 17.9509 4.79967 18.03L4.47049 18.22C4.28233 18.3299 4.13522 18.4984 4.05158 18.7C3.91169 20.0798 3.91169 21.4702 4.05158 22.85C4.16027 23.0478 4.33252 23.2029 4.54032 23.29H4.62013C4.76525 23.3575 4.892 23.4591 4.98974 23.5861C5.08747 23.7131 5.15333 23.8618 5.18169 24.0197C5.21005 24.1776 5.2001 24.34 5.15271 24.4932C5.10532 24.6464 5.02186 24.7859 4.90938 24.9L4.83955 24.96C4.67806 25.1077 4.56943 25.3044 4.53034 25.52C4.65668 26.04 4.80631 26.5533 4.9792 27.06H12.9588C11.4327 24.3461 10.918 21.1769 11.5066 18.1178C12.0952 15.0588 13.7489 12.3089 16.1725 10.3589C18.596 8.40891 21.6318 7.38567 24.7382 7.47178C27.8445 7.55789 30.8193 8.74773 33.1317 10.829C35.4441 12.9103 36.9436 15.7476 37.3627 18.8346C37.7818 21.9216 37.0933 25.0574 35.4199 27.6826C33.7465 30.3078 31.1971 32.2515 28.2267 33.1668C25.2563 34.0822 22.0582 33.9096 19.2029 32.68H7.89176C8.57431 33.6195 9.33513 34.4993 10.166 35.31C10.3561 35.409 10.5729 35.4441 10.7844 35.41L11.0836 35.36C11.2339 35.3393 11.3868 35.3533 11.5309 35.4008C11.675 35.4483 11.8064 35.5281 11.9151 35.6341C12.0237 35.7402 12.1069 35.8697 12.1581 36.0128C12.2093 36.1559 12.2273 36.3089 12.2108 36.46C12.1937 36.5996 12.2062 36.7412 12.2475 36.8756C12.2887 37.01 12.3578 37.1342 12.4501 37.24C13.5144 38.0135 14.6501 38.6832 15.8415 39.24C16.0862 39.2951 16.3426 39.2559 16.5597 39.13L16.839 38.96C16.9744 38.8868 17.125 38.846 17.2788 38.8408C17.4326 38.8356 17.5854 38.8661 17.7255 38.9301C17.8656 38.994 17.989 39.0895 18.0861 39.2092C18.1832 39.3289 18.2514 39.4695 18.2853 39.62C18.3189 39.7908 18.3964 39.9498 18.5101 40.0813C18.6238 40.2129 18.7698 40.3124 18.9336 40.37C19.5653 40.55 20.207 40.6967 20.8587 40.81H21.158L21.7764 40.9L22.2851 40.96H22.6442C22.7949 40.962 22.944 40.9298 23.0805 40.8657C23.217 40.8016 23.3372 40.7073 23.4321 40.59L23.5418 40.45C23.6354 40.3368 23.7528 40.2456 23.8856 40.183C24.0183 40.1205 24.1632 40.088 24.3099 40.088C24.4566 40.088 24.6015 40.1205 24.7342 40.183C24.867 40.2456 24.9844 40.3368 25.078 40.45L25.1677 40.57C25.2676 40.7008 25.3982 40.8049 25.5478 40.8729C25.6975 40.9409 25.8616 40.9709 26.0256 40.96C26.5143 40.96 27.023 40.86 27.5018 40.79L27.9805 40.72C28.6089 40.6 29.2174 40.46 29.8159 40.29C29.9727 40.2434 30.1157 40.1588 30.2322 40.0437C30.3488 39.9286 30.4353 39.7865 30.4842 39.63V39.49C30.5312 39.3505 30.6084 39.2231 30.7102 39.117C30.812 39.0108 30.936 38.9286 31.0732 38.876C31.2104 38.8235 31.3575 38.802 31.504 38.813C31.6504 38.8241 31.7927 38.8674 31.9205 38.94L32.0701 39.03C32.2071 39.1131 32.3619 39.1619 32.5216 39.1723C32.6813 39.1828 32.8412 39.1545 32.9878 39.09C34.0952 38.5662 35.1534 37.9437 36.1497 37.23C36.3044 37.1189 36.4242 36.9656 36.4949 36.7884C36.5656 36.6112 36.5843 36.4175 36.5487 36.23C36.5288 36.0773 36.5443 35.9221 36.5941 35.7764C36.6438 35.6307 36.7265 35.4985 36.8356 35.3901C36.9447 35.2817 37.0773 35.2 37.223 35.1515C37.3688 35.1029 37.5237 35.0887 37.6758 35.11L37.995 35.17C38.1491 35.1954 38.307 35.1843 38.4559 35.1374C38.6049 35.0905 38.7409 35.0092 38.8528 34.9C39.6766 34.0589 40.4274 33.1489 41.0971 32.18C41.1939 32.0333 41.2504 31.8636 41.2609 31.688C41.2714 31.5125 41.2356 31.3372 41.1569 31.18C41.0898 31.044 41.0544 30.8946 41.0534 30.7429C41.0525 30.5912 41.0859 30.4413 41.1512 30.3044C41.2166 30.1676 41.3121 30.0475 41.4306 29.9532C41.5491 29.8589 41.6875 29.7928 41.8352 29.76L42.1344 29.71C42.2834 29.6807 42.4237 29.6178 42.5447 29.5259C42.6657 29.4341 42.7642 29.3158 42.8327 29.18C43.3536 28.0665 43.7742 26.9086 44.0895 25.72C44.1281 25.5556 44.1245 25.3842 44.0792 25.2215C44.0338 25.0589 43.9481 24.9104 43.8301 24.79L43.7004 24.67C43.5996 24.5629 43.5235 24.4348 43.4778 24.2948C43.4321 24.1548 43.4178 24.0064 43.4359 23.8603C43.454 23.7141 43.5041 23.5737 43.5826 23.4492C43.6611 23.3247 43.766 23.2191 43.89 23.14L44.2191 22.95C44.3513 22.8706 44.4633 22.7615 44.5464 22.6314C44.6294 22.5012 44.6813 22.3536 44.6979 22.2C44.8075 21.0733 44.8242 19.9394 44.7478 18.81Z" fill="#D80034"/>
<path d="M23.881 30.33H21.0183C20.8741 30.3112 20.7417 30.2405 20.6458 30.131C20.5498 30.0215 20.4969 29.8807 20.4969 29.735C20.4969 29.5893 20.5498 29.4485 20.6458 29.339C20.7417 29.2295 20.8741 29.1588 21.0183 29.14H24.3498C24.4939 29.1588 24.6263 29.2295 24.7223 29.339C24.8182 29.4485 24.8711 29.5893 24.8711 29.735C24.8711 29.8807 24.8182 30.0215 24.7223 30.131C24.6263 30.2405 24.4939 30.3112 24.3498 30.33H23.881Z" fill="#D80034"/>
<path d="M17.6868 30.33H14.3553C14.2111 30.3112 14.0787 30.2405 13.9828 30.131C13.8868 30.0215 13.8339 29.8807 13.8339 29.735C13.8339 29.5893 13.8868 29.4485 13.9828 29.339C14.0787 29.2295 14.2111 29.1588 14.3553 29.14H17.6868C17.8309 29.1588 17.9633 29.2295 18.0593 29.339C18.1552 29.4485 18.2081 29.5893 18.2081 29.735C18.2081 29.8807 18.1552 30.0215 18.0593 30.131C17.9633 30.2405 17.8309 30.3112 17.6868 30.33Z" fill="#D80034"/>
<path d="M10.9739 30.33H7.68231C7.53815 30.3112 7.40573 30.2405 7.30979 30.131C7.21384 30.0215 7.16093 29.8807 7.16093 29.735C7.16093 29.5893 7.21384 29.4485 7.30979 29.339C7.40573 29.2295 7.53815 29.1588 7.68231 29.14H10.9739C11.1181 29.1588 11.2505 29.2295 11.3464 29.339C11.4424 29.4485 11.4953 29.5893 11.4953 29.735C11.4953 29.8807 11.4424 30.0215 11.3464 30.131C11.2505 30.2405 11.1181 30.3112 10.9739 30.33Z" fill="#D80034"/>
</svg>
