<svg width="158" height="16" viewBox="0 0 158 16" fill="none" xmlns="http://www.w3.org/2000/svg">
<path d="M5.10388 4.55V15.55H0.87468V2.94C0.87654 2.63448 0.948217 2.33344 1.08417 2.06C1.36343 1.48474 1.82703 1.01998 2.40082 0.740005C2.66377 0.606148 2.95375 0.534312 3.24863 0.529999H15.4375C15.7321 0.53636 16.0217 0.608085 16.2854 0.740005C16.8592 1.01998 17.3228 1.48474 17.602 2.06C17.738 2.33344 17.8096 2.63448 17.8115 2.94V15.5H13.5424V4.5L5.10388 4.55Z" fill="#D80034"/>
<path d="M36.7831 0.740005C37.3569 1.01998 37.8205 1.48474 38.0997 2.06C38.2357 2.33344 38.3074 2.63448 38.3092 2.94V13.09C38.3074 13.3955 38.2357 13.6966 38.0997 13.97C37.8223 14.549 37.3585 15.0175 36.7831 15.3C36.5201 15.4339 36.2302 15.5057 35.9353 15.51H22.1803C21.8854 15.5057 21.5955 15.4339 21.3325 15.3C20.7587 15.02 20.2951 14.5553 20.0159 13.98C19.8799 13.7066 19.8082 13.4055 19.8064 13.1V2.94C19.8082 2.63448 19.8799 2.33344 20.0159 2.06C20.2951 1.48474 20.7587 1.01998 21.3325 0.740005C21.5955 0.606148 21.8854 0.534312 22.1803 0.529999H35.9253C36.2233 0.534879 36.5164 0.606644 36.7831 0.740005ZM24.0955 4.55V11.49H34.07V4.55H24.0955Z" fill="#D80034"/>
<path d="M44.4735 4.55V15.55H40.1944V2.94C40.1962 2.63448 40.2679 2.33344 40.4039 2.06C40.6831 1.48474 41.1467 1.01998 41.7205 0.740005C41.9835 0.606148 42.2734 0.534312 42.5683 0.529999H54.7971C55.0917 0.53636 55.3813 0.608085 55.6449 0.740005C56.2187 1.01998 56.6823 1.48474 56.9616 2.06C57.0975 2.33344 57.1692 2.63448 57.1711 2.94V15.5H52.892V4.5L44.4735 4.55Z" fill="#D80034"/>
<path d="M72.891 6.19V0.529999H77.1701V13.09C77.1682 13.3955 77.0966 13.6966 76.9606 13.97C76.6934 14.5426 76.2444 15.0103 75.6839 15.3C75.4209 15.4339 75.1309 15.5057 74.836 15.51H59.176V11.51H72.891V9.87H61.5499C61.255 9.86568 60.965 9.79386 60.7021 9.66C60.1283 9.38003 59.6647 8.91525 59.3854 8.34C59.2495 8.06655 59.1778 7.76553 59.176 7.46001V0.550003H63.455V6.21001L72.891 6.19Z" fill="#D80034"/>
<path d="M79.0652 0.529999H97.0194V4.53H90.1868V15.53H85.9078V4.53H79.0752L79.0652 0.529999Z" fill="#D80034"/>
<path d="M112.59 6.19V0.529999H116.869V15.53H112.59V9.87H101.279C100.984 9.86568 100.694 9.79386 100.431 9.66C99.8569 9.38003 99.3934 8.91525 99.1141 8.34C98.9781 8.06655 98.9065 7.76553 98.9047 7.46001V0.550003H103.184V6.21001L112.59 6.19Z" fill="#D80034"/>
<path d="M134.055 0.529999H134.853C135.192 0.521198 135.531 0.575448 135.85 0.690002C136.128 0.789492 136.388 0.934815 136.618 1.12C136.828 1.28927 137.003 1.49614 137.137 1.73C137.257 1.93305 137.323 2.16396 137.327 2.39999V15.5H133.048V6.12L128.729 10.27C127.512 11.43 126.471 12.3867 125.607 13.14C124.936 13.7441 124.233 14.3116 123.502 14.84C123.123 15.1385 122.684 15.3502 122.215 15.46C122.167 15.476 122.114 15.476 122.066 15.46H121.238C120.621 15.4567 120.024 15.2453 119.542 14.86C119.335 14.6926 119.159 14.4894 119.023 14.26C118.9 14.0548 118.834 13.8197 118.834 13.58V0.479996H123.113V9.83L127.522 5.64999C128.738 4.48999 129.763 3.53666 130.594 2.78999C131.227 2.19654 131.893 1.639 132.589 1.12C132.965 0.820049 133.405 0.61129 133.875 0.509995C133.936 0.498595 133.998 0.505563 134.055 0.529999Z" fill="#D80034"/>
<path d="M143.511 6.19H147.501L152.428 0.529999H157.745L151.271 8.03L157.745 15.5H152.428L147.501 9.85001H143.511V15.51H139.232V0.509995H143.511V6.19Z" fill="#D80034"/>
</svg>
