<svg width="8" height="12" viewBox="0 0 8 12" fill="none" xmlns="http://www.w3.org/2000/svg">
<path d="M5.73309 11.9255C5.48474 11.923 5.24743 11.8223 5.07306 11.6455L0.263062 6.83546C0.0945144 6.6651 0 6.43512 0 6.19547C0 5.95581 0.0945144 5.72583 0.263062 5.55547L5.54309 0.275452C5.63042 0.188123 5.7341 0.118856 5.84821 0.0715942C5.96231 0.0243321 6.08457 3.90395e-09 6.20807 0C6.33157 -3.90386e-09 6.45389 0.0243321 6.56799 0.0715942C6.68209 0.118856 6.78578 0.188123 6.87311 0.275452C6.96044 0.362781 7.0297 0.466466 7.07697 0.580566C7.12423 0.694667 7.14856 0.816958 7.14856 0.94046C7.14856 1.06396 7.12423 1.18625 7.07697 1.30035C7.0297 1.41445 6.96044 1.51812 6.87311 1.60545L2.27307 6.20546L6.40308 10.3355C6.53268 10.4669 6.62074 10.6335 6.65625 10.8147C6.69176 10.9958 6.67316 11.1833 6.60278 11.354C6.5324 11.5246 6.41332 11.6707 6.26044 11.7741C6.10756 11.8775 5.92766 11.9336 5.7431 11.9355L5.73309 11.9255Z" fill="#D80034"/>
</svg>
