<svg width="300" height="50" viewBox="0 0 300 50" fill="none" xmlns="http://www.w3.org/2000/svg">
<g clip-path="url(#clip0_165_230)">
<path d="M26.6561 17.0615C22.3051 17.0615 18.7729 20.5937 18.7729 24.9447C18.7729 29.2957 22.3051 32.8278 26.6561 32.8278C31.0071 32.8278 34.5392 29.2957 34.5392 24.9447C34.5392 20.5937 31.0071 17.0615 26.6561 17.0615ZM26.3261 30.9457C23.0139 30.7623 20.4718 27.9391 20.6551 24.6269C20.8384 21.3148 23.6617 18.7726 26.9738 18.9559C30.286 19.1393 32.8282 21.9625 32.6448 25.2747C32.4615 28.5868 29.6382 31.129 26.3261 30.9457Z" fill="#D80034"/>
<path d="M30.6893 36.2626C30.3838 36.2626 30.1027 36.0671 29.9927 35.7615C29.8582 35.3826 30.066 34.9671 30.4571 34.8326C30.8238 34.7104 31.166 34.5515 31.4837 34.3804C32.2904 33.916 33.0359 33.4027 33.6959 32.8405C34.0015 32.5838 34.4659 32.6205 34.7226 32.926C34.9792 33.2316 34.9425 33.696 34.637 33.9527C33.9159 34.5638 33.097 35.126 32.2171 35.6271C31.826 35.8593 31.386 36.0426 30.9337 36.2015C30.8604 36.2259 30.7749 36.2382 30.7015 36.2382L30.6893 36.2626Z" fill="#D80034"/>
<path d="M36.8125 31.0682C36.6903 31.0682 36.5558 31.0315 36.4459 30.9704C36.1036 30.7626 35.9814 30.3226 36.1892 29.9682C36.837 28.8682 37.2281 27.6705 37.3503 26.4116C37.3869 26.0083 37.7414 25.715 38.1447 25.7516C38.548 25.7883 38.8414 26.1427 38.8047 26.5461C38.658 28.0127 38.2058 29.406 37.4603 30.7015C37.3258 30.9337 37.0814 31.0682 36.8247 31.0682H36.8125Z" fill="#D80034"/>
<path d="M16.4141 29.5646C16.133 29.5646 15.8641 29.4057 15.7419 29.1246C15.3997 28.3424 14.813 26.7658 14.7275 24.9202C14.703 24.5169 15.0208 24.1747 15.4241 24.1503C15.8274 24.138 16.1696 24.4436 16.1941 24.8469C16.2674 26.4602 16.793 27.8535 17.0863 28.5379C17.2452 28.9046 17.0863 29.3324 16.7074 29.5035C16.6096 29.5401 16.5119 29.5646 16.4141 29.5646Z" fill="#D80034"/>
<path d="M37.6803 23.1607C37.3625 23.1607 37.0692 22.9529 36.9714 22.6229C36.6292 21.3763 36.0914 20.203 35.3581 19.1519C35.1259 18.8219 35.2114 18.3697 35.5414 18.1374C35.8714 17.9052 36.3236 17.9908 36.5558 18.3208C37.3747 19.5063 37.9858 20.8263 38.3647 22.2318C38.4747 22.6229 38.2425 23.0262 37.8514 23.124C37.7903 23.1362 37.7169 23.1484 37.6558 23.1484L37.6803 23.1607Z" fill="#D80034"/>
<path d="M16.1452 21.6205C16.0597 21.6205 15.9619 21.6083 15.8763 21.5716C15.4974 21.425 15.3141 20.9972 15.4608 20.6305C15.9741 19.3106 16.7563 18.0395 17.7096 16.9517C17.9785 16.6462 18.4307 16.6217 18.7363 16.8784C19.0418 17.1473 19.0663 17.5995 18.8096 17.905C17.9663 18.8706 17.2696 19.995 16.8174 21.1561C16.7074 21.4494 16.4263 21.6205 16.133 21.6205H16.1452Z" fill="#D80034"/>
<path d="M33.097 16.6093C32.9504 16.6093 32.8037 16.5726 32.6815 16.4748C31.5937 15.7293 30.4326 15.1793 29.2227 14.8371C28.8316 14.7271 28.6116 14.3237 28.7093 13.9449C28.8071 13.566 29.2227 13.3338 29.6015 13.4315C30.9704 13.8104 32.2782 14.4337 33.5004 15.2648C33.8303 15.4971 33.9159 15.9493 33.6837 16.2793C33.537 16.487 33.317 16.597 33.0848 16.597L33.097 16.6093Z" fill="#D80034"/>
<path d="M21.474 15.6562C21.2051 15.6562 20.9484 15.5095 20.8262 15.2528C20.6429 14.8984 20.7895 14.4584 21.144 14.2751C22.464 13.6151 23.8573 13.1996 25.2994 13.0529C25.7028 13.0162 26.0572 13.3096 26.0939 13.7129C26.1305 14.1162 25.8372 14.4706 25.4339 14.5073C24.175 14.6295 22.9528 14.984 21.7917 15.5706C21.6817 15.6195 21.5717 15.644 21.4618 15.644L21.474 15.6562Z" fill="#D80034"/>
<path d="M26.6561 7.54102C17.0374 7.54102 9.23981 15.3386 9.23981 24.9573C9.23981 27.7928 9.87535 30.3961 11.0853 32.7671H14.1164C12.6742 30.4694 11.892 27.8539 11.892 24.9573C11.892 16.8053 18.504 10.1932 26.6561 10.1932C34.8081 10.1932 41.4202 16.8053 41.4202 24.9573C41.4202 32.266 36.1037 38.3281 29.1371 39.5136C29.1127 39.5136 29.1005 39.5259 29.076 39.5259C28.8072 39.5625 28.5505 39.5992 28.306 39.6236C28.1716 39.6359 28.0372 39.6481 27.8905 39.6603C27.8294 39.6603 27.7683 39.6603 27.7072 39.6725C27.5483 39.6725 27.4016 39.697 27.2427 39.697C26.7172 39.7214 26.3872 39.7092 26.3872 39.7092H17.4041C20.0807 41.3958 23.2584 42.3736 26.6561 42.3736C36.2748 42.3736 44.0724 34.576 44.0724 24.9573C44.0724 15.3386 36.2748 7.54102 26.6561 7.54102Z" fill="#D80034"/>
<path d="M51.6622 22.7571C51.6255 22.3171 51.3322 21.9382 50.9289 21.7794L50.8311 21.7427C50.0245 21.4127 49.8411 20.3616 50.4767 19.775L50.5622 19.7016C50.8922 19.4083 51.0267 18.9561 50.9167 18.5283C50.5378 17.1228 50.0367 15.7662 49.4256 14.4829C49.2667 14.1406 48.9367 13.8962 48.5578 13.8351L48.1056 13.7495C47.3356 13.6151 46.9079 12.784 47.2379 12.0751L47.3356 11.8796C47.519 11.5007 47.4823 11.0485 47.2501 10.7063C46.3823 9.47186 45.4168 8.32299 44.3535 7.2719C44.0846 7.00302 43.6935 6.89302 43.3146 6.95413L42.9479 7.01524C42.1535 7.16191 41.4569 6.47748 41.5669 5.67083C41.628 5.21862 41.4324 4.77863 41.0658 4.52197C39.8925 3.69087 38.6458 2.96978 37.3381 2.34646C36.9836 2.17535 36.5681 2.1998 36.2381 2.40757L35.8959 2.61534C35.187 3.03089 34.2704 2.61534 34.1237 1.80869V1.78425C34.0381 1.33204 33.7082 0.965378 33.2559 0.843159C31.826 0.452056 30.3471 0.170952 28.8316 0.0365102C28.4405 -0.000155678 28.0494 0.170952 27.805 0.488722L27.6705 0.65983C27.1939 1.27093 26.2528 1.27093 25.7883 0.635386L25.6783 0.488722C25.4339 0.15873 25.0428 -0.0123776 24.6272 0.0120663C23.845 0.073176 23.0628 0.15873 22.2806 0.293171C21.4984 0.439835 20.7284 0.623164 19.9829 0.830937C19.5918 0.940934 19.274 1.24648 19.164 1.63759L19.1151 1.80869C18.8951 2.55423 18.0152 2.89645 17.3552 2.4809L17.1719 2.3709C16.8296 2.16313 16.4141 2.12646 16.0474 2.29757C14.6786 2.94533 13.383 3.7031 12.1731 4.57085C11.7942 4.83974 11.6109 5.29195 11.6842 5.74416V5.7686C11.8309 6.58748 11.122 7.29635 10.3031 7.13746L9.91201 7.06413C9.53313 6.9908 9.12981 7.11302 8.86093 7.39412C7.8465 8.42077 6.92986 9.53297 6.11099 10.7185C5.85433 11.0852 5.81766 11.574 6.03766 11.9774C6.42876 12.6862 6.00099 13.5662 5.20656 13.7129L4.8399 13.774C4.46102 13.8351 4.14325 14.0795 3.98437 14.4217C3.69104 15.0328 3.43438 15.6562 3.20216 16.2917C3.14105 16.4506 3.07994 16.6095 3.03106 16.7684C2.99439 16.8906 2.9455 17.0006 2.90884 17.1228C2.72551 17.6972 2.5544 18.2717 2.41996 18.8583C2.39551 19.2005 2.52996 19.5305 2.77439 19.775L2.93328 19.9216C3.49549 20.4716 3.37327 21.4005 2.70106 21.7916L2.29774 22.0238C2.06552 22.1582 1.88219 22.366 1.78442 22.6105C1.63775 24.2726 1.64998 25.9715 1.8333 27.6826C1.96775 27.9148 2.17552 28.1103 2.43218 28.2203L2.52996 28.257C3.3366 28.587 3.51993 29.6381 2.88439 30.2247L2.79884 30.2981C2.60329 30.4814 2.46885 30.7258 2.41996 30.9825C2.57884 31.618 2.72551 32.1191 2.92106 32.7425L12.6008 32.718C11.7331 31.178 11.1953 29.6259 10.8653 27.7926C9.31314 19.0661 15.143 10.7307 23.8695 9.19075C32.596 7.63856 40.9313 13.4684 42.4713 22.1949C44.0235 30.9214 38.1936 39.2567 29.4671 40.7967C26.265 41.3711 23.1117 40.9434 20.3373 39.7456H6.50209C7.3454 40.8823 8.27427 41.9578 9.28869 42.9478C9.52091 43.07 9.78979 43.1189 10.0465 43.07L10.4131 43.0089C11.2075 42.8622 11.9042 43.5467 11.7942 44.3533C11.7453 44.7077 11.8553 45.05 12.0875 45.3066C13.3953 46.2477 14.7886 47.0666 16.243 47.751C16.5363 47.8243 16.8541 47.7754 17.123 47.6166L17.4652 47.4088C18.1741 46.9932 19.0907 47.4088 19.2374 48.2154V48.2399C19.3107 48.6677 19.6162 49.0099 20.0318 49.1565C20.8018 49.3765 21.584 49.5599 22.3906 49.6943C22.5128 49.7187 22.6351 49.731 22.7573 49.7554C23.0139 49.7921 23.2584 49.841 23.515 49.8654C23.7228 49.8898 23.9306 49.9143 24.1384 49.9387C24.285 49.951 24.4317 49.9754 24.5784 49.9876C24.9572 49.9998 25.3117 49.8287 25.5439 49.5354L25.6783 49.3643C26.155 48.7532 27.0961 48.7532 27.5605 49.3887L27.6705 49.5354C27.9149 49.8654 28.306 50.0365 28.7216 50.0121C29.3205 49.9632 29.9193 49.8898 30.5304 49.8043C30.726 49.7798 30.9215 49.7432 31.1171 49.7187C31.8871 49.5721 32.6326 49.401 33.3659 49.1932C33.757 49.0832 34.0748 48.7776 34.1848 48.3865L34.2337 48.2154C34.4537 47.4699 35.3337 47.1277 35.9937 47.5432L36.177 47.6532C36.5192 47.861 36.9347 47.8977 37.3014 47.7266C38.6703 47.0788 39.9658 46.321 41.1758 45.4533C41.5546 45.1844 41.738 44.7322 41.6646 44.28V44.2555C41.518 43.4367 42.2269 42.7278 43.0457 42.8867L43.4368 42.96C43.8157 43.0333 44.219 42.9111 44.4879 42.63C45.5023 41.6034 46.419 40.4912 47.2379 39.3056C47.4945 38.939 47.5312 38.4501 47.3112 38.0468C46.9201 37.3379 47.3478 36.4579 48.1423 36.3113L48.5089 36.2501C48.8878 36.189 49.2056 35.9446 49.3645 35.6024C50 34.2457 50.5133 32.8402 50.9044 31.3736C51.0144 30.9703 50.88 30.5303 50.5867 30.2369L50.4278 30.0903C49.8656 29.5403 49.9878 28.6114 50.66 28.2203L51.0633 27.9881C51.3933 27.7926 51.6133 27.4626 51.65 27.0715C51.7722 25.6537 51.7722 24.2115 51.65 22.7693L51.6622 22.7571Z" fill="#D80034"/>
<path d="M26.0817 36.971H22.574C22.1706 36.971 21.8406 36.641 21.8406 36.2377C21.8406 35.8344 22.1706 35.5044 22.574 35.5044H26.0817C26.265 35.5044 26.4605 35.5044 26.6439 35.5044C27.0472 35.5044 27.365 35.8222 27.3772 36.2255C27.3772 36.6288 27.0594 36.9588 26.6561 36.9588C26.4605 36.9588 26.265 36.9588 26.0817 36.9588V36.971Z" fill="#D80034"/>
<path d="M18.4796 36.9959H14.3975C13.9941 36.9959 13.6642 36.6659 13.6642 36.2626C13.6642 35.8593 13.9941 35.5293 14.3975 35.5293H18.4796C18.8829 35.5293 19.2129 35.8593 19.2129 36.2626C19.2129 36.6659 18.8829 36.9959 18.4796 36.9959Z" fill="#D80034"/>
<path d="M10.3153 36.971H6.23319C5.82987 36.971 5.49988 36.641 5.49988 36.2377C5.49988 35.8344 5.82987 35.5044 6.23319 35.5044H10.3153C10.7187 35.5044 11.0486 35.8344 11.0486 36.2377C11.0486 36.641 10.7187 36.971 10.3153 36.971Z" fill="#D80034"/>
<path d="M26.7172 31.9111H3.21437C1.62552 31.9111 0.525544 33.5489 1.06331 35.1133L2.3955 39.0121C2.72549 39.9654 3.58103 40.6009 4.54657 40.6009H26.7172" stroke="#D80034" stroke-width="1.5" stroke-miterlimit="10"/>
</g>
<g clip-path="url(#clip1_165_230)">
<path d="M68.4905 19.9078V36H62V17.5418C62 17.1009 62.1059 16.6747 62.3177 16.2485C62.5295 15.8223 62.8019 15.4402 63.1498 15.1169C63.4978 14.7936 63.8912 14.5144 64.3148 14.3086C64.7535 14.1029 65.1772 14 65.6008 14H84.1494C84.573 14 84.9966 14.1029 85.4354 14.3086C85.8741 14.5144 86.2675 14.7789 86.6003 15.1169C86.9483 15.4549 87.2206 15.837 87.4325 16.2485C87.6443 16.6747 87.7502 17.1009 87.7502 17.5418V36H81.2597V19.9078H68.4905Z" fill="#D80034"/>
<path d="M116.511 14.3086C116.95 14.5144 117.343 14.7789 117.676 15.1169C118.024 15.4549 118.296 15.837 118.508 16.2485C118.72 16.6747 118.826 17.1009 118.826 17.5418V32.4583C118.826 32.8991 118.72 33.3253 118.508 33.7515C118.296 34.1777 118.024 34.5598 117.676 34.8831C117.328 35.2064 116.935 35.4856 116.511 35.6914C116.072 35.8971 115.649 36 115.225 36H94.3768C93.9532 36 93.5296 35.8971 93.0909 35.6914C92.6521 35.4856 92.2587 35.2211 91.9259 34.8831C91.5779 34.5451 91.3056 34.163 91.0938 33.7515C90.882 33.3253 90.7761 32.8991 90.7761 32.4583V17.5418C90.7761 17.1009 90.882 16.6747 91.0938 16.2485C91.3056 15.8223 91.5779 15.4402 91.9259 15.1169C92.2739 14.7936 92.6672 14.5144 93.0909 14.3086C93.5296 14.1029 93.9532 14 94.3768 14H115.225C115.649 14 116.072 14.1029 116.511 14.3086ZM97.2666 19.9078V30.1069H112.351V19.9078H97.2666Z" fill="#D80034"/>
<path d="M128.206 19.9078V36H121.716V17.5418C121.716 17.1009 121.821 16.6747 122.033 16.2485C122.245 15.8223 122.517 15.4402 122.865 15.1169C123.213 14.7936 123.607 14.5144 124.03 14.3086C124.469 14.1029 124.893 14 125.316 14H143.865C144.289 14 144.712 14.1029 145.151 14.3086C145.59 14.5144 145.983 14.7789 146.316 15.1169C146.664 15.4549 146.936 15.837 147.148 16.2485C147.36 16.6747 147.466 17.1009 147.466 17.5418V36H140.975V19.9078H128.191H128.206Z" fill="#D80034"/>
<path d="M171.295 22.318V14H177.785V32.4583C177.785 32.8991 177.679 33.3253 177.467 33.7515C177.255 34.1777 176.983 34.5598 176.635 34.8831C176.287 35.2211 175.894 35.4856 175.47 35.6914C175.031 35.8971 174.608 36 174.184 36H150.492V30.0922H171.295V27.682H154.092C153.669 27.682 153.245 27.5792 152.806 27.3734C152.368 27.1677 151.974 26.9031 151.641 26.5651C151.293 26.2271 151.021 25.845 150.809 25.4335C150.598 25.0073 150.492 24.5812 150.492 24.1403V14H156.982V22.318H171.31H171.295Z" fill="#D80034"/>
<path d="M180.66 14H207.862V19.9078H197.499V36H191.008V19.9078H180.644V14H180.66Z" fill="#D80034"/>
<path d="M231.555 22.318V14H238.045V36H231.555V27.682H214.353C213.929 27.682 213.505 27.5792 213.067 27.3734C212.628 27.1677 212.235 26.9031 211.902 26.5651C211.554 26.2271 211.281 25.845 211.07 25.4335C210.858 25.0073 210.752 24.5812 210.752 24.1403V14H217.242V22.318H231.57H231.555Z" fill="#D80034"/>
<path d="M264.068 14H265.278C265.793 14 266.262 14.0735 266.715 14.2351C267.169 14.3968 267.563 14.6025 267.88 14.8671C268.213 15.1316 268.47 15.4255 268.667 15.7635C268.864 16.1015 268.955 16.4248 268.955 16.7482V36H262.464V22.2298C259.937 24.5959 257.759 26.6239 255.913 28.3287C254.067 30.0334 252.494 31.4442 251.178 32.5464C249.876 33.6486 248.802 34.4863 247.985 35.0448C247.153 35.6032 246.503 35.9118 246.034 35.9559C246.003 35.9853 245.928 36 245.807 36H244.551C244.067 36 243.598 35.9265 243.159 35.7649C242.705 35.6032 242.312 35.3975 241.994 35.1329C241.661 34.8684 241.404 34.5745 241.207 34.2512C241.011 33.9279 240.92 33.5898 240.92 33.2518V14H247.41V27.7408C250.028 25.3454 252.252 23.3026 254.098 21.5979C255.943 19.8931 257.502 18.497 258.757 17.3948C260.013 16.3073 261.042 15.4843 261.844 14.9405C262.646 14.3968 263.296 14.1029 263.795 14.0441C263.826 14.0147 263.916 14 264.068 14Z" fill="#D80034"/>
<path d="M278.335 22.318H284.462L291.936 14H300L290.181 25.022L300 36H291.936L284.462 27.682H278.335V36H271.844V14H278.335V22.318Z" fill="#D80034"/>
</g>
<defs>
<clipPath id="clip0_165_230">
<rect width="51.7477" height="50" fill="white"/>
</clipPath>
<clipPath id="clip1_165_230">
<rect width="238" height="22" fill="white" transform="translate(62 14)"/>
</clipPath>
</defs>
</svg>
