<svg width="30" height="32" viewBox="0 0 30 32" fill="none" xmlns="http://www.w3.org/2000/svg">
<g clip-path="url(#clip0_230_2950)">
<path d="M19.7637 15.5308C19.7637 18.1415 17.6444 20.2607 15.0338 20.2607C12.4232 20.2607 10.3039 18.1415 10.3039 15.5308C10.3039 12.9202 12.4232 10.801 15.0338 10.801C17.6444 10.801 19.7637 12.9202 19.7637 15.5308ZM11.4332 15.7288C11.5432 17.7161 13.2371 19.2414 15.2244 19.1314C17.2117 19.0214 18.737 17.3275 18.627 15.3402C18.517 13.3529 16.8231 11.8276 14.8358 11.9376C12.8485 12.0476 11.3232 13.7416 11.4332 15.7288Z" fill="#D80034"/>
<path d="M8.24283 13.1109C8.24283 13.2943 8.36016 13.4629 8.54349 13.5289C8.77082 13.6096 9.02014 13.4849 9.10081 13.2503C9.17414 13.0303 9.26947 12.8249 9.37214 12.6343C9.6508 12.1503 9.95879 11.703 10.2961 11.307C10.4501 11.1236 10.4281 10.845 10.2448 10.691C10.0615 10.537 9.78279 10.559 9.6288 10.7423C9.26214 11.175 8.92481 11.6663 8.62415 12.1943C8.48482 12.4289 8.37482 12.6929 8.27949 12.9643C8.26483 13.0083 8.25749 13.0596 8.25749 13.1036L8.24283 13.1109Z" fill="#D80034"/>
<path d="M11.359 9.43672C11.359 9.51006 11.381 9.59072 11.4177 9.65672C11.5423 9.86205 11.8063 9.93538 12.019 9.81072C12.679 9.42206 13.3976 9.1874 14.1529 9.11407C14.3949 9.09207 14.5709 8.8794 14.5489 8.63741C14.5269 8.39542 14.3143 8.21942 14.0723 8.24142C13.1923 8.32942 12.3563 8.60074 11.579 9.04807C11.4397 9.12873 11.359 9.2754 11.359 9.42939L11.359 9.43672Z" fill="#D80034"/>
<path d="M12.261 21.676C12.261 21.8446 12.3563 22.0059 12.525 22.0793C12.9943 22.2846 13.9403 22.6366 15.0476 22.6879C15.2896 22.7026 15.4949 22.5119 15.5096 22.2699C15.5169 22.0279 15.3336 21.8226 15.0916 21.8079C14.1236 21.7639 13.2876 21.4486 12.8769 21.2726C12.6569 21.1773 12.4003 21.2726 12.2976 21.5C12.2756 21.5586 12.261 21.6173 12.261 21.676Z" fill="#D80034"/>
<path d="M16.1047 8.91622C16.1047 9.10689 16.2293 9.28288 16.4273 9.34155C17.1753 9.54688 17.8793 9.86953 18.51 10.3095C18.7079 10.4489 18.9793 10.3975 19.1186 10.1995C19.2579 10.0015 19.2066 9.7302 19.0086 9.59087C18.2973 9.09955 17.5053 8.73289 16.662 8.50557C16.4273 8.43957 16.1853 8.5789 16.1267 8.81356C16.1193 8.85022 16.112 8.89422 16.112 8.93089L16.1047 8.91622Z" fill="#D80034"/>
<path d="M17.0278 21.8374C17.0278 21.8887 17.0351 21.9474 17.0571 21.9987C17.1451 22.226 17.4018 22.336 17.6218 22.248C18.4138 21.94 19.1764 21.4707 19.8291 20.8987C20.0124 20.7374 20.0271 20.4661 19.8731 20.2827C19.7117 20.0994 19.4404 20.0848 19.2571 20.2387C18.6778 20.7447 18.0031 21.1627 17.3065 21.4341C17.1305 21.5001 17.0278 21.6687 17.0278 21.8447L17.0278 21.8374Z" fill="#D80034"/>
<path d="M20.035 11.6663C20.035 11.7543 20.057 11.8423 20.1157 11.9156C20.563 12.5682 20.893 13.2649 21.0983 13.9909C21.1643 14.2255 21.4063 14.3575 21.6337 14.2989C21.861 14.2402 22.0003 13.9909 21.9417 13.7635C21.7143 12.9422 21.3403 12.1576 20.8417 11.4243C20.7024 11.2263 20.431 11.1749 20.233 11.3143C20.1084 11.4023 20.0424 11.5343 20.0424 11.6736L20.035 11.6663Z" fill="#D80034"/>
<path d="M20.6061 18.64C20.6061 18.8013 20.6941 18.9553 20.8481 19.0286C21.0608 19.1386 21.3248 19.0506 21.4347 18.838C21.8307 18.046 22.0801 17.21 22.1681 16.3447C22.1901 16.1027 22.0141 15.89 21.7721 15.868C21.5301 15.846 21.3174 16.022 21.2954 16.264C21.2221 17.0193 21.0094 17.7527 20.6574 18.4493C20.6281 18.5153 20.6134 18.5813 20.6134 18.6473L20.6061 18.64Z" fill="#D80034"/>
<path d="M25.4746 15.5307C25.4746 21.3019 20.796 25.9805 15.0248 25.9805C13.3235 25.9805 11.7616 25.5991 10.3389 24.8732L10.3389 23.0545C11.7176 23.9198 13.2869 24.3892 15.0248 24.3892C19.9161 24.3892 23.8833 20.4219 23.8833 15.5307C23.8833 10.6395 19.9161 6.67223 15.0248 6.67223C10.6396 6.67223 7.00235 9.86216 6.29103 14.0421C6.29103 14.0567 6.2837 14.0641 6.2837 14.0787C6.2617 14.2401 6.2397 14.3941 6.22504 14.5407C6.21771 14.6214 6.21037 14.7021 6.20304 14.79C6.20304 14.8267 6.20304 14.8634 6.1957 14.9C6.1957 14.9954 6.18104 15.0834 6.18104 15.1787C6.16637 15.494 6.1737 15.692 6.1737 15.692L6.1737 21.0819C5.16173 19.4759 4.57507 17.5693 4.57507 15.5307C4.57507 9.7595 9.25364 5.08093 15.0248 5.08093C20.796 5.08093 25.4746 9.7595 25.4746 15.5307Z" fill="#D80034"/>
<path d="M16.3457 0.527028C16.6097 0.549028 16.8371 0.725025 16.9324 0.967019L16.9544 1.02568C17.1524 1.50967 17.783 1.61967 18.135 1.23835L18.179 1.18702C18.355 0.989019 18.6263 0.908353 18.883 0.974351C19.7263 1.20168 20.5403 1.50234 21.3103 1.869C21.5156 1.96433 21.6623 2.16233 21.6989 2.38965L21.7503 2.66098C21.8309 3.12297 22.3296 3.37963 22.7549 3.18163L22.8723 3.12297C23.0996 3.01297 23.3709 3.03497 23.5762 3.1743C24.3169 3.69496 25.0062 4.27428 25.6369 4.91226C25.7982 5.07359 25.8642 5.30826 25.8275 5.53559L25.7909 5.75558C25.7029 6.23223 26.1135 6.65023 26.5975 6.58423C26.8688 6.54756 27.1328 6.66489 27.2868 6.88489C27.7855 7.58887 28.2181 8.33685 28.5921 9.1215C28.6948 9.33417 28.6801 9.58349 28.5555 9.78149L28.4308 9.98682C28.1815 10.4121 28.4308 10.9621 28.9148 11.0501L28.9295 11.0501C29.2008 11.1015 29.4208 11.2995 29.4941 11.5708C29.7288 12.4288 29.8974 13.3161 29.9781 14.2254C30.0001 14.4601 29.8974 14.6947 29.7068 14.8414L29.6041 14.922C29.2374 15.208 29.2374 15.7727 29.6188 16.0513L29.7068 16.1173C29.9048 16.264 30.0074 16.4987 29.9928 16.748C29.9561 17.2173 29.9048 17.6866 29.8241 18.156C29.7361 18.6253 29.6261 19.0873 29.5014 19.5346C29.4354 19.7693 29.2521 19.9599 29.0174 20.0259L28.9148 20.0553C28.4675 20.1873 28.2621 20.7152 28.5115 21.1112L28.5775 21.2212C28.7021 21.4266 28.7241 21.6759 28.6215 21.8959C28.2328 22.7172 27.7781 23.4945 27.2575 24.2205C27.0962 24.4478 26.8248 24.5578 26.5535 24.5138L26.5388 24.5138C26.0475 24.4258 25.6222 24.8512 25.7175 25.3425L25.7615 25.5771C25.8055 25.8045 25.7322 26.0465 25.5635 26.2078C24.9475 26.8164 24.2802 27.3664 23.5689 27.8578C23.3489 28.0118 23.0556 28.0338 22.8136 27.9018C22.3883 27.6671 21.8603 27.9238 21.7723 28.4004L21.7356 28.6204C21.6989 28.8477 21.5523 29.0384 21.347 29.1337C20.9803 29.3097 20.6063 29.4637 20.225 29.603C20.1296 29.6397 20.0343 29.6764 19.939 29.7057C19.8657 29.7277 19.7997 29.757 19.7263 29.779C19.3817 29.889 19.037 29.9917 18.685 30.0724C18.4797 30.087 18.2817 30.0064 18.135 29.8597L18.047 29.7644C17.717 29.4271 17.1597 29.5004 16.9251 29.9037L16.7857 30.1457C16.7051 30.285 16.5804 30.395 16.4337 30.4537C15.4364 30.5417 14.4171 30.5344 13.3905 30.4244C13.2511 30.3437 13.1338 30.219 13.0678 30.065L13.0458 30.0064C12.8478 29.5224 12.2172 29.4124 11.8652 29.7937L11.8212 29.845C11.7112 29.9624 11.5645 30.043 11.4105 30.0724C11.0292 29.977 10.7285 29.889 10.3545 29.7717L10.3692 23.9638C11.2932 24.4845 12.2245 24.8072 13.3245 25.0052C18.5603 25.9365 23.5616 22.4385 24.4856 17.2027C25.4169 11.9668 21.9189 6.96555 16.6831 6.04157C11.4472 5.11026 6.44595 8.60818 5.52197 13.8441C5.17731 15.7654 5.43397 17.6573 6.15262 19.3219L6.15262 27.6231C5.47064 27.1171 4.82532 26.5598 4.23133 25.9511C4.158 25.8118 4.12867 25.6505 4.158 25.4965L4.19467 25.2765C4.28267 24.7998 3.87201 24.3818 3.38802 24.4478C3.17536 24.4772 2.97003 24.4112 2.81603 24.2718C2.25138 23.4872 1.76006 22.6512 1.3494 21.7786C1.3054 21.6026 1.33473 21.4119 1.43006 21.2506L1.55473 21.0452C1.80405 20.6199 1.55473 20.0699 1.07074 19.9819L1.05607 19.9819C0.79941 19.9379 0.59408 19.7546 0.506083 19.5053C0.374085 19.0433 0.264088 18.574 0.183425 18.09C0.168757 18.0166 0.161425 17.9433 0.14676 17.87C0.12476 17.716 0.0954271 17.5693 0.0807596 17.4153C0.066094 17.2907 0.0514265 17.166 0.0367609 17.0413C0.0294272 16.9533 0.0147597 16.8653 0.00742782 16.7773C9.40705e-05 16.55 0.102761 16.3373 0.278756 16.198L0.381421 16.1173C0.748078 15.8314 0.748078 15.2667 0.366753 14.988L0.278756 14.922C0.0807616 14.7754 -0.0219033 14.5407 -0.00723768 14.2914C0.0220955 13.9321 0.0660942 13.5727 0.117427 13.2061C0.132092 13.0887 0.154092 12.9714 0.168757 12.8541C0.256757 12.3921 0.35942 11.9448 0.484084 11.5048C0.550082 11.2701 0.733413 11.0795 0.968074 11.0135L1.07074 10.9841C1.51806 10.8521 1.72339 10.3241 1.47406 9.92815L1.40806 9.81815C1.2834 9.61282 1.2614 9.3635 1.36407 9.1435C1.75272 8.32219 2.20738 7.54487 2.72804 6.81889C2.88937 6.59156 3.16069 6.48156 3.43202 6.52556L3.44669 6.52556C3.93801 6.61356 4.36333 6.18823 4.268 5.69691L4.224 5.46225C4.18 5.23492 4.25333 4.99293 4.422 4.8316C5.03798 4.22295 5.7053 3.67296 6.41662 3.18163C6.63662 3.02764 6.92994 3.00564 7.17194 3.13764C7.59726 3.3723 8.12525 3.11564 8.21325 2.63898L8.24991 2.41899C8.28658 2.19166 8.43324 2.00099 8.63857 1.90566C9.45255 1.52434 10.2959 1.21634 11.1758 0.981683C11.4178 0.915685 11.6818 0.99635 11.8578 1.17235L11.9458 1.26768C12.2758 1.605 12.8331 1.53167 13.0678 1.12835L13.2071 0.886354C13.3245 0.688358 13.5225 0.556361 13.7571 0.534362C14.6078 0.46103 15.4731 0.46103 16.3384 0.534362L16.3457 0.527028Z" fill="#D80034"/>
<path d="M7.81728 15.8753L7.81728 17.9799C7.81728 18.2219 8.01528 18.4199 8.25728 18.4199C8.49927 18.4199 8.69727 18.2219 8.69727 17.9799L8.69727 15.8753C8.69727 15.7653 8.69727 15.648 8.69727 15.538C8.69727 15.296 8.5066 15.1053 8.26461 15.098C8.02261 15.098 7.82462 15.2887 7.82462 15.5307C7.82462 15.648 7.82462 15.7653 7.82462 15.8753L7.81728 15.8753Z" fill="#D80034"/>
<path d="M7.80166 20.4367L7.80166 22.8859C7.80166 23.1279 7.99966 23.3259 8.24165 23.3259C8.48364 23.3259 8.68164 23.1279 8.68164 22.8859L8.68164 20.4367C8.68164 20.1947 8.48364 19.9967 8.24165 19.9967C7.99966 19.9967 7.80166 20.1947 7.80166 20.4367Z" fill="#D80034"/>
<path d="M7.81728 25.3351L7.81728 27.7844C7.81728 28.0264 8.01528 28.2244 8.25728 28.2244C8.49927 28.2244 8.69727 28.0264 8.69727 27.7844L8.69727 25.3351C8.69727 25.0931 8.49927 24.8951 8.25728 24.8951C8.01528 24.8951 7.81728 25.0931 7.81728 25.3351Z" fill="#D80034"/>
<path d="M10.8535 15.4941L10.8535 29.5958C10.8535 30.5491 9.87087 31.2091 8.93223 30.8864L6.59294 30.0871C6.02096 29.8891 5.63963 29.3758 5.63963 28.7965L5.63963 15.4941" stroke="#D80034" stroke-width="0.9" stroke-miterlimit="10"/>
</g>
<defs>
<clipPath id="clip0_230_2950">
<rect width="31.0486" height="30" fill="white" transform="matrix(4.37114e-08 -1 -1 -4.37114e-08 30 31.5244)"/>
</clipPath>
</defs>
</svg>
